# xmcd
#
# Track frame offsets: 
#        150
#        19028
#        37046
#        51203
#        71648
#        87690
#        106757
#        134333
#        157762
#        176055
#        199802
#        218807
#        230117
#
# Disc length: 3390 seconds
#
# Revision: 0
# Processed by: cddbd v1.5.2PL0 Copyright (c) Steve Scherf et al.
# Submitted via: ExactAudioCopy v1.3
#
DISCID=b80d3c0d
DTITLE=Second Breath - Save the blues
DYEAR=2007
DGENRE=Blues
TTITLE0=For Katya
TTITLE1=Ain't Got You
TTITLE2=Roadhouse
TTITLE3=Save The Blues
TTITLE4=Sweet Little Sixteen
TTITLE5=Why People Like That
TTITLE6=Mannish Boy
TTITLE7=It Hearts Me Too
TTITLE8=Dixi
TTITLE9=I Like To Walk
TTITLE10=Let Me Love You
TTITLE11=House Is Rocking
TTITLE12=Got My Mojo Working
EXTD=
EXTT0=
EXTT1=
EXTT2=
EXTT3=
EXTT4=
EXTT5=
EXTT6=
EXTT7=
EXTT8=
EXTT9=
EXTT10=
EXTT11=
EXTT12=
PLAYORDER=
